<?xml version="1.0" encoding="UTF-8"?>
<svg width="28px" height="37px" viewBox="0 0 28 37" version="1.1" xmlns="http://www.w3.org/2000/svg" xmlns:xlink="http://www.w3.org/1999/xlink">
    <!-- Generator: Sketch 44.1 (41455) - http://www.bohemiancoding.com/sketch -->
    <title>Accident_Help</title>
    <desc>Created with Sketch.</desc>
    <defs>
        <linearGradient x1="0%" y1="0%" x2="100%" y2="100%" id="linearGradient-1">
            <stop stop-color="#19EEEF" offset="0%"></stop>
            <stop stop-color="#0BD8D9" offset="100%"></stop>
        </linearGradient>
    </defs>
    <g id="Sign_Up_Flow" stroke="none" stroke-width="1" fill="none" fill-rule="evenodd">
        <g id="Home-/-Dashboard" transform="translate(-85.000000, -462.000000)" fill="url(#linearGradient-1)">
            <g id="DashBoard_Nav" transform="translate(1.000000, 54.000000)">
                <g id="Accident_Help" transform="translate(84.485170, 407.971640)">
                    <g id="Page-1">
                        <path d="M13.4877349,1.5501108 C14.4737581,1.5501108 15.2730837,2.35296875 15.2730837,3.34334943 C15.2730837,4.33394034 14.4737581,5.13700852 13.4877349,5.13700852 C12.5015023,5.13700852 11.702386,4.33394034 11.702386,3.34334943 C11.702386,2.35296875 12.5015023,1.5501108 13.4877349,1.5501108 Z M12.9644791,16.3653733 C12.9644791,16.0750494 13.1986884,15.8398051 13.4877349,15.8398051 C13.7767814,15.8398051 14.0109907,16.0750494 14.0109907,16.3653733 L14.0109907,27.4512881 C14.0109907,27.7416119 13.7767814,27.9768562 13.4877349,27.9768562 C13.1986884,27.9768562 12.9644791,27.7416119 12.9644791,27.4512881 L12.9644791,16.3653733 Z M6.79661163,20.8378534 C6.59212326,21.0432455 6.26100698,21.0432455 6.05672791,20.8378534 C5.85223953,20.6324614 5.85223953,20.2998818 6.05672791,20.0947 L11.5678674,14.5592057 C12.0787744,14.0456205 12.7606814,13.763075 13.4877977,13.763075 C14.2144953,13.763075 14.8964023,14.0456205 15.4077279,14.5592057 L20.9188674,20.0947 C21.1231465,20.2998818 21.1231465,20.6324614 20.9188674,20.8378534 C20.8165186,20.9404443 20.6827744,20.9917398 20.5488209,20.9917398 C20.4148674,20.9917398 20.2811233,20.9404443 20.1789837,20.8378534 L14.6676349,15.3023591 C14.3541,14.9874386 13.9350767,14.8142114 13.4877977,14.8142114 C13.0403093,14.8142114 12.621286,14.9874386 12.3077512,15.3023591 L6.79661163,20.8378534 Z M7.75013023,8.28999716 C6.83401395,8.28999716 6.08429302,7.53696307 6.08429302,6.6167983 L6.08429302,4.66462784 C6.08429302,3.74446307 6.83401395,2.99142898 7.75013023,2.99142898 L10.1778279,2.99142898 C10.3528047,1.3104517 11.7676884,0.000105113636 13.4877349,0.000105113636 C15.2077814,0.000105113636 16.6226651,1.3104517 16.7976419,2.99142898 L19.2253395,2.99142898 C20.1414558,2.99142898 20.8911767,3.74446307 20.8911767,4.66462784 L20.8911767,6.6167983 C20.8911767,7.53696307 20.1414558,8.28999716 19.2253395,8.28999716 L7.75013023,8.28999716 Z M23.2985721,4.75361705 C25.3260837,4.75361705 26.9751767,6.41020795 26.9751767,8.44646932 L26.9751767,33.2585432 C26.9751767,35.2948045 25.3260837,36.9513955 23.2985721,36.9513955 L3.67689767,36.9513955 C1.64938605,36.9513955 8.37209304e-05,35.2948045 8.37209304e-05,33.2585432 L8.37209304e-05,8.44646932 C8.37209304e-05,6.41020795 1.64938605,4.75361705 3.67689767,4.75361705 L4.64785116,4.75361705 C4.93668837,4.75361705 5.17110698,4.98886136 5.17110698,5.27918523 C5.17110698,5.56950909 4.93668837,5.80475341 4.64785116,5.80475341 L3.67689767,5.80475341 C2.22643256,5.80475341 1.04659535,6.99001477 1.04659535,8.44646932 L1.04659535,33.2585432 C1.04659535,34.715208 2.22643256,35.9002591 3.67689767,35.9002591 L23.2985721,35.9002591 C24.7488279,35.9002591 25.9286651,34.715208 25.9286651,33.2585432 L25.9286651,8.44646932 C25.9286651,6.99001477 24.7488279,5.80475341 23.2985721,5.80475341 L22.3278279,5.80475341 C22.0387814,5.80475341 21.8045721,5.56950909 21.8045721,5.27918523 C21.8045721,4.98886136 22.0387814,4.75361705 22.3278279,4.75361705 L23.2985721,4.75361705 Z" id="Fill-7"></path>
                    </g>
                </g>
            </g>
        </g>
    </g>
</svg>