<?xml version="1.0" encoding="UTF-8"?>
<svg width="11px" height="19px" viewBox="0 0 11 19" version="1.1" xmlns="http://www.w3.org/2000/svg" xmlns:xlink="http://www.w3.org/1999/xlink">
    <!-- Generator: Sketch 44.1 (41455) - http://www.bohemiancoding.com/sketch -->
    <title>Back_Arrow</title>
    <desc>Created with Sketch.</desc>
    <defs>
        <polygon id="path-1" points="0.0006 0.0005 10.5226 0.0005 10.5226 18.4155 0.0006 18.4155"></polygon>
    </defs>
    <g id="Symbols" stroke="none" stroke-width="1" fill="none" fill-rule="evenodd">
        <g id="Sequence_Wizard_Default" transform="translate(-20.000000, -32.000000)">
            <g id="Back_Arrow" transform="translate(20.000000, 32.000000)">
                <g id="Page-1">
                    <mask id="mask-2" fill="white">
                        <use xlink:href="#path-1"></use>
                    </mask>
                    <g id="Clip-2"></g>
                    <path d="M3.1726,9.2109 L10.1546,2.2289 C10.3826,1.9929 10.5226,1.6699 10.5226,1.3159 C10.5226,0.5889 9.9346,-0.0001 9.2076,-0.0001 C8.8536,-0.0001 8.5316,0.1409 8.2946,0.3689 L0.4016,8.2609 C0.1546,8.4999 0.0006,8.8359 0.0006,9.2069 C0.0006,9.5849 0.1546,9.9209 0.4026,10.1609 L8.2946,18.0529 C8.5336,18.2759 8.8546,18.4159 9.2076,18.4159 C9.9346,18.4159 10.5226,17.8269 10.5226,17.0999 C10.5226,16.7019 10.3446,16.3439 10.0646,16.1029 L3.1726,9.2109 Z" id="Fill-1" fill="#FFFFFF" mask="url(#mask-2)"></path>
                </g>
            </g>
        </g>
    </g>
</svg>