<?xml version="1.0" encoding="UTF-8"?>
<svg width="47px" height="42px" viewBox="0 0 47 42" version="1.1" xmlns="http://www.w3.org/2000/svg" xmlns:xlink="http://www.w3.org/1999/xlink">
    <!-- Generator: Sketch 44.1 (41455) - http://www.bohemiancoding.com/sketch -->
    <title>Claims_Icon</title>
    <desc>Created with Sketch.</desc>
    <defs>
        <linearGradient x1="-3.69855489%" y1="4.39367603%" x2="105.892353%" y2="93.3055315%" id="linearGradient-1">
            <stop stop-color="#19EEEF" offset="0%"></stop>
            <stop stop-color="#0BD8D9" offset="100%"></stop>
        </linearGradient>
    </defs>
    <g id="Sign_Up_Flow" stroke="none" stroke-width="1" fill="none" fill-rule="evenodd">
        <g id="Home-/-Dashboard" transform="translate(-261.000000, -459.000000)" fill="url(#linearGradient-1)">
            <g id="DashBoard_Nav" transform="translate(1.000000, 54.000000)">
                <g id="Claims_Icon" transform="translate(260.099394, 405.410023)">
                    <g id="Page-1" transform="translate(0.854545, 0.000000)">
                        <path d="M19.3725241,25.0991109 C19.6352968,24.9658609 19.9570332,25.0700693 20.0903423,25.3333661 C20.2240786,25.5960224 20.1191832,25.9174026 19.8561968,26.0508661 C17.9291968,27.0295276 15.8485923,27.5255849 13.672065,27.5255849 C6.133265,27.5255849 -2.13636362e-05,21.3950172 -2.13636362e-05,13.8597724 C-2.13636362e-05,6.32431406 6.133265,0.193746354 13.672065,0.193746354 C16.9152786,0.193746354 20.0362923,1.34281406 22.5027241,3.43103802 L25.6553559,0.279803646 C26.1426605,-0.207284896 26.5415195,-0.0420036458 26.5415195,0.646668229 L26.5415195,6.90813698 C26.5415195,7.5970224 25.9775195,8.16055885 25.2883286,8.16055885 L19.0240832,8.16055885 C18.3351059,8.16055885 18.169965,7.7620901 18.6570559,7.27500156 L21.7451695,4.18847031 C19.4823332,2.29948073 16.6322105,1.26145469 13.672065,1.26145469 C6.72226045,1.26145469 1.06816045,6.9128349 1.06816045,13.8597724 C1.06816045,20.8062828 6.72226045,26.4578766 13.672065,26.4578766 C15.6787514,26.4578766 17.596565,26.0008974 19.3725241,25.0991109 Z M42.8656023,12.950149 C44.672325,12.950149 46.1423568,14.4195292 46.1423568,16.225451 L46.1423568,37.6989875 C46.1423568,39.5049094 44.672325,40.9742896 42.8656023,40.9742896 L25.8011841,40.9742896 C23.9944614,40.9742896 22.5244295,39.5049094 22.5244295,37.6989875 L22.5244295,16.225451 C22.5244295,14.4195292 23.9944614,12.950149 25.8011841,12.950149 L26.645475,12.950149 C26.9405068,12.950149 27.1795659,13.1891021 27.1795659,13.4840031 C27.1795659,13.7789042 26.9405068,14.0178573 26.645475,14.0178573 L25.8011841,14.0178573 C24.5834568,14.0178573 23.5926114,15.0082635 23.5926114,16.225451 L23.5926114,37.6989875 C23.5926114,38.9163885 24.5834568,39.9065813 25.8011841,39.9065813 L42.8656023,39.9065813 C44.0833295,39.9065813 45.074175,38.9163885 45.074175,37.6989875 L45.074175,16.225451 C45.074175,15.0082635 44.0833295,14.0178573 42.8656023,14.0178573 L42.0213114,14.0178573 C41.7262795,14.0178573 41.4872205,13.7789042 41.4872205,13.4840031 C41.4872205,13.1891021 41.7262795,12.950149 42.0213114,12.950149 L42.8656023,12.950149 Z M34.3332864,10.2567052 C35.1910364,10.2567052 35.8862091,10.9515698 35.8862091,11.8089396 C35.8862091,12.6658823 35.1910364,13.3609604 34.3332864,13.3609604 C33.47575,13.3609604 32.7803636,12.6658823 32.7803636,11.8089396 C32.7803636,10.9515698 33.47575,10.2567052 34.3332864,10.2567052 M29.3435955,16.0895958 C28.5467318,16.0895958 27.8947136,15.4380802 27.8947136,14.6415698 L27.8947136,12.9522417 C27.8947136,12.1559448 28.5467318,11.5042156 29.3435955,11.5042156 L31.45475,11.5042156 C31.6070727,10.0491427 32.8376182,8.91523646 34.3332864,8.91523646 C35.8291682,8.91523646 37.0597136,10.0491427 37.2120364,11.5042156 L39.3231909,11.5042156 C40.1200545,11.5042156 40.7718591,12.1559448 40.7718591,12.9522417 L40.7718591,14.6415698 C40.7718591,15.4380802 40.1200545,16.0895958 39.3231909,16.0895958 L29.3435955,16.0895958 Z M19.6534986,15.7674896 C19.9485305,15.7674896 20.1875895,16.0064427 20.1875895,16.3013438 C20.1875895,16.5962448 19.9485305,16.8351979 19.6534986,16.8351979 L12.8175623,16.8351979 C12.5225305,16.8351979 12.2834714,16.5962448 12.2834714,16.3013438 L12.2834714,8.93501042 C12.2834714,8.64010938 12.5225305,8.40115625 12.8175623,8.40115625 C13.1125941,8.40115625 13.3516532,8.64010938 13.3516532,8.93501042 L13.3516532,15.7674896 L19.6534986,15.7674896 Z M41.2693755,27.3439891 C41.5644073,27.3439891 41.8032527,27.5831557 41.8032527,27.8780568 C41.8032527,28.1727443 41.5641936,28.4116974 41.2691618,28.4116974 L41.2689482,28.4116974 L27.3973255,28.4078536 C27.1025073,28.4078536 26.8634482,28.168687 26.8634482,27.8737859 C26.8634482,27.579312 27.1025073,27.3401453 27.3975391,27.3401453 L27.3977527,27.3401453 L41.2693755,27.3439891 Z M26.8635123,22.9624344 C26.8635123,22.6677469 27.1025714,22.4287938 27.3976032,22.4287938 L27.3978168,22.4287938 L41.2694395,22.4326375 C41.5644714,22.4326375 41.8033168,22.6718042 41.8033168,22.9667052 C41.8033168,23.2611792 41.5642577,23.5003458 41.2692259,23.5003458 L41.2690123,23.5003458 L27.3973895,23.4965021 C27.1023577,23.4965021 26.8635123,23.2573354 26.8635123,22.9624344 Z M27.3978168,32.4652307 L41.2694395,32.4690745 C41.5644714,32.4690745 41.8033168,32.7082411 41.8033168,33.0031422 C41.8033168,33.2976161 41.5642577,33.5367828 41.2692259,33.5367828 L41.2690123,33.5367828 L27.3973895,33.5329391 C27.1023577,33.5329391 26.8635123,33.2937724 26.8635123,32.9988714 C26.8635123,32.7041839 27.1025714,32.4652307 27.3976032,32.4652307 L27.3978168,32.4652307 Z" id="Fill-1"></path>
                    </g>
                </g>
            </g>
        </g>
    </g>
</svg>