<?xml version="1.0" encoding="UTF-8"?>
<svg width="47px" height="36px" viewBox="0 0 47 36" version="1.1" xmlns="http://www.w3.org/2000/svg" xmlns:xlink="http://www.w3.org/1999/xlink">
    <!-- Generator: Sketch 44.1 (41455) - http://www.bohemiancoding.com/sketch -->
    <title>Make_Payment_Icon</title>
    <desc>Created with Sketch.</desc>
    <defs>
        <polygon id="path-1" points="16.0386702 0.143790698 0 0.143790698 0 22.5146512 32.0773405 22.5146512 32.0773405 0.143790698"></polygon>
        <polygon id="path-3" points="0.0713748837 14.8604651 18.5700074 14.8604651 18.5700074 0.0731302326 0.0713748837 0.0731302326"></polygon>
        <linearGradient x1="0%" y1="0%" x2="100%" y2="100%" id="linearGradient-5">
            <stop stop-color="#19EEEF" offset="0%"></stop>
            <stop stop-color="#0BD8D9" offset="100%"></stop>
        </linearGradient>
    </defs>
    <g id="Sign_Up_Flow" stroke="none" stroke-width="1" fill="none" fill-rule="evenodd">
        <g id="Home-/-Dashboard" transform="translate(-74.000000, -344.000000)">
            <g id="DashBoard_Nav" transform="translate(1.000000, 54.000000)">
                <g id="Make_Payment_Icon" transform="translate(73.553850, 290.151376)">
                    <g id="Page-1">
                        <g id="Group-9" transform="translate(0.000000, 0.065512)">
                            <mask id="mask-2" fill="white">
                                <use xlink:href="#path-1"></use>
                            </mask>
                            <g id="Clip-8"></g>
                        </g>
                        <g id="Group-14" transform="translate(27.386047, 20.995744)">
                            <mask id="mask-4" fill="white">
                                <use xlink:href="#path-3"></use>
                            </mask>
                            <g id="Clip-13"></g>
                        </g>
                        <path d="M36.9282223,24.640493 C38.0555433,24.640493 38.9691247,25.5344233 38.9691247,26.6370279 C38.9691247,27.2980047 38.6366409,27.8794465 38.1308549,28.2427953 L38.1308549,29.3638186 C38.1308549,30.0109814 37.5897665,30.5405163 36.9282223,30.5405163 C36.2666781,30.5405163 35.7253758,30.0109814 35.7253758,29.3638186 L35.7253758,28.2427953 C35.2195898,27.8794465 34.88732,27.2980047 34.88732,26.6370279 C34.88732,25.5344233 35.8009014,24.640493 36.9282223,24.640493 Z M31.0075302,10.8442047 C31.2957256,10.3222047 31.657093,9.84499535 32.0772977,9.42366977 C33.253614,8.24466977 34.8937814,7.51085581 36.7068233,7.51085581 C40.2755674,7.51085581 43.1793442,10.3512977 43.1793442,13.8424605 L43.1793442,18.397507 C43.1793442,18.6865535 42.9399302,18.9207628 42.6444605,18.9207628 C42.3489907,18.9207628 42.1095767,18.6865535 42.1095767,18.397507 L42.1095767,13.8424605 C42.1095767,10.9281349 39.6859116,8.55736744 36.7068233,8.55736744 C34.7446558,8.55736744 33.0238279,9.58608837 32.0772977,11.1209023 C31.5869163,11.9164605 31.3040698,12.8476465 31.3040698,13.8424605 L31.3040698,18.397507 C31.3040698,18.6022047 31.1825442,18.7776 31.0075302,18.863414 C30.9354279,18.8989953 30.8554093,18.9207628 30.769186,18.9207628 C30.4737163,18.9207628 30.2343023,18.6865535 30.2343023,18.397507 L30.2343023,13.8424605 C30.2343023,12.7584837 30.5145814,11.7372977 31.0075302,10.8442047 Z M1.06970326,1.82448837 C1.06970326,1.51074419 1.33051256,1.25581395 1.65122884,1.25581395 L30.4262614,1.25581395 C30.7467637,1.25581395 31.007573,1.51074419 31.007573,1.82448837 L31.007573,3.55667442 L1.06970326,3.55667442 L1.06970326,1.82448837 Z M1.06970326,20.9649767 L1.06970326,6.68972093 L30.221294,6.68972093 C30.4722614,6.47162791 30.7345684,6.26672093 31.007573,6.0745814 C31.1706056,5.95967442 31.3374893,5.8495814 31.5080102,5.74451163 C31.6939358,5.62981395 31.8832847,5.51951163 32.0773405,5.41716279 L32.0773405,1.82448837 C32.0773405,0.933906977 31.3366335,0.209302326 30.4262614,0.209302326 L1.65122884,0.209302326 C0.740642791,0.209302326 -6.41860464e-05,0.933906977 -6.41860464e-05,1.82448837 L-6.41860464e-05,20.9649767 C-6.41860464e-05,21.8555581 0.740642791,22.5801628 1.65122884,22.5801628 L24.1531451,22.5801628 C24.1608474,22.223093 24.2077033,21.8727209 24.2922149,21.5336512 L1.65122884,21.5336512 C1.33051256,21.5336512 1.06970326,21.2785116 1.06970326,20.9649767 L1.06970326,20.9649767 Z M44.8862865,34.2408977 C44.8862865,34.5546419 44.6254772,34.8097814 44.3047609,34.8097814 L29.1087144,34.8097814 C28.7879981,34.8097814 28.5271888,34.5546419 28.5271888,34.2408977 L28.5271888,22.6842698 C28.5271888,22.6484791 28.5316819,22.6139442 28.5381005,22.5802465 C28.5881656,22.316107 28.8245842,22.115386 29.1087144,22.115386 L31.5830865,22.115386 L44.3047609,22.115386 C44.6254772,22.115386 44.8862865,22.3705256 44.8862865,22.6842698 L44.8862865,34.2408977 Z M44.3047609,21.0688744 L32.0717563,21.0688744 L30.996854,21.0688744 L29.1087144,21.0688744 C28.6583423,21.0688744 28.2499051,21.2465721 27.9518679,21.5337349 C27.670733,21.8039442 27.4895144,22.1716884 27.4627702,22.5802465 C27.4606307,22.6147814 27.4574214,22.649107 27.4574214,22.6842698 L27.4574214,34.2408977 C27.4574214,35.1314791 28.1981284,35.856293 29.1087144,35.856293 L44.3047609,35.856293 C45.215347,35.856293 45.956054,35.1314791 45.956054,34.2408977 L45.956054,22.6842698 C45.956054,21.7934791 45.215347,21.0688744 44.3047609,21.0688744 L44.3047609,21.0688744 Z M12.2634074,13.0357465 C12.2221144,13.1512814 12.1579284,13.2498628 12.0710633,13.3323279 C11.9839842,13.4143744 11.8720865,13.4786302 11.7347284,13.5246767 C11.5977981,13.5709326 11.4347656,13.5939558 11.2460586,13.5939558 L10.0605423,13.5939558 L10.0605423,11.6164674 L11.2460586,11.6164674 C11.4347656,11.6164674 11.5977981,11.6453512 11.7347284,11.7031186 C11.8720865,11.760886 11.9839842,11.8379093 12.0710633,11.934607 C12.1579284,12.0313047 12.2221144,12.1422349 12.2634074,12.2678163 C12.3047005,12.3931884 12.32524,12.523793 12.32524,12.6594209 C12.32524,12.7950488 12.3047005,12.9204209 12.2634074,13.0357465 M13.6656586,12.6506302 C13.6656586,12.3507 13.6111005,12.0729558 13.5019842,11.8178163 C13.392654,11.5622581 13.2343284,11.3416535 13.0263656,11.1555837 C12.8186167,10.969514 12.5648679,10.8246767 12.2657609,10.7206535 C11.966226,10.6168395 11.6264679,10.5649326 11.2460586,10.5649326 L8.73360279,10.5649326 L8.73360279,16.8653512 L10.0605423,16.8653512 L10.0605423,14.6454907 L11.2460586,14.6454907 C11.6264679,14.6454907 11.966226,14.598607 12.2657609,14.5048395 C12.5648679,14.4110721 12.8186167,14.2777465 13.0263656,14.1046535 C13.2343284,13.9315605 13.392654,13.7224674 13.5019842,13.4771651 C13.6111005,13.2318628 13.6656586,12.9564209 13.6656586,12.6506302 M16.0765293,12.1573674 L16.8859153,14.515786 L15.2759153,14.515786 L16.0765293,12.1573674 Z M14.9177572,15.5673209 L14.4755153,16.865414 L13.0642781,16.865414 L15.4618409,10.5649953 L16.6914316,10.5649953 L19.1022595,16.865414 L17.6910223,16.865414 L17.2442874,15.5673209 L14.9177572,15.5673209 Z M21.5772735,16.8653302 L20.2280828,16.8653302 L20.2280828,14.580586 L18.1137944,10.5649116 L19.5688921,10.5649116 L20.9005386,13.4034698 L22.2407433,10.5649116 L23.6915619,10.5649116 L21.5772735,14.580586 L21.5772735,16.8653302 Z" id="Fill-15" fill="url(#linearGradient-5)"></path>
                    </g>
                </g>
            </g>
        </g>
    </g>
</svg>