<?xml version="1.0" encoding="UTF-8"?>
<svg width="35px" height="35px" viewBox="0 0 35 35" version="1.1" xmlns="http://www.w3.org/2000/svg" xmlns:xlink="http://www.w3.org/1999/xlink">
    <!-- Generator: Sketch 44.1 (41455) - http://www.bohemiancoding.com/sketch -->
    <title>My_Policy_Icon</title>
    <desc>Created with Sketch.</desc>
    <defs>
        <linearGradient x1="0%" y1="0%" x2="100%" y2="100%" id="linearGradient-1">
            <stop stop-color="#19EEEF" offset="0%"></stop>
            <stop stop-color="#0BD8D9" offset="100%"></stop>
        </linearGradient>
    </defs>
    <g id="Sign_Up_Flow" stroke="none" stroke-width="1" fill="none" fill-rule="evenodd">
        <g id="Home-/-Dashboard" transform="translate(-44.000000, -253.000000)" fill="url(#linearGradient-1)">
            <g id="DashBoard_Nav" transform="translate(1.000000, 54.000000)">
                <g id="My_Policy_Icon" transform="translate(43.000000, 199.000000)">
                    <g id="Page-1" transform="translate(0.000000, 0.209581)">
                        <path d="M17.4950958,1.04788323 C12.5343174,1.04788323 8.49820958,5.9143503 8.49820958,11.895997 C8.49820958,17.8776437 12.5343174,22.7439012 17.4950958,22.7439012 C22.4558743,22.7439012 26.491982,17.8776437 26.491982,11.895997 C26.491982,5.9143503 22.4558743,1.04788323 17.4950958,1.04788323 M17.4950958,23.7918054 C11.956503,23.7918054 7.45030539,18.4554581 7.45030539,11.895997 C7.45030539,5.33653593 11.956503,-2.09580838e-05 17.4950958,-2.09580838e-05 C23.0336886,-2.09580838e-05 27.5398862,5.33653593 27.5398862,11.895997 C27.5398862,18.4554581 23.0336886,23.7918054 17.4950958,23.7918054 Z M34.4663234,34.6805988 L0.523868263,34.6805988 C0.234646707,34.6805988 -8.38323355e-05,34.4460778 -8.38323355e-05,34.1566467 L-8.38323355e-05,32.7243713 C-8.38323355e-05,27.0629641 4.21332934,22.4572156 9.39228144,22.4572156 L9.54758084,22.4572156 C9.83701198,22.4572156 10.0715329,22.6917365 10.0715329,22.9811677 C10.0715329,23.2705988 9.83701198,23.5051198 9.54758084,23.5051198 L9.39228144,23.5051198 C4.79114371,23.5051198 1.04782036,27.6407784 1.04782036,32.7243713 L1.04782036,33.6326946 L33.9423713,33.6326946 L33.9423713,32.7243713 C33.9423713,27.6407784 30.1992575,23.5051198 25.5981198,23.5051198 L25.4426108,23.5051198 C25.1531796,23.5051198 24.9186587,23.2705988 24.9186587,22.9811677 C24.9186587,22.6917365 25.1531796,22.4572156 25.4426108,22.4572156 L25.5981198,22.4572156 C30.7768623,22.4572156 34.9902754,27.0629641 34.9902754,32.7243713 L34.9902754,34.1566467 C34.9902754,34.4460778 34.7557545,34.6805988 34.4663234,34.6805988 Z" id="Fill-4"></path>
                    </g>
                </g>
            </g>
        </g>
    </g>
</svg>