<?xml version="1.0" encoding="UTF-8"?>
<svg width="34px" height="23px" viewBox="0 0 34 23" version="1.1" xmlns="http://www.w3.org/2000/svg" xmlns:xlink="http://www.w3.org/1999/xlink">
    <!-- Generator: Sketch 44.1 (41455) - http://www.bohemiancoding.com/sketch -->
    <title>Notification_Icon</title>
    <desc>Created with Sketch.</desc>
    <defs>
        <polygon id="path-1" points="33.984561 0.0249166667 0 0.0249166667 0 22.7869731 33.984561 22.7869731 33.984561 0.0249166667"></polygon>
        <linearGradient x1="0%" y1="0%" x2="100%" y2="100%" id="linearGradient-3">
            <stop stop-color="#19EEEF" offset="0%"></stop>
            <stop stop-color="#0BD8D9" offset="100%"></stop>
        </linearGradient>
    </defs>
    <g id="Sign_Up_Flow" stroke="none" stroke-width="1" fill="none" fill-rule="evenodd">
        <g id="Home-/-Dashboard" transform="translate(-45.000000, -170.000000)">
            <g id="DashBoard_Nav" transform="translate(1.000000, 54.000000)">
                <g id="Notification_Icon" transform="translate(44.000000, 116.000000)">
                    <g id="Page-1">
                        <g id="Group-3" transform="translate(0.000000, 0.188046)">
                            <mask id="mask-2" fill="white">
                                <use xlink:href="#path-1"></use>
                            </mask>
                            <g id="Clip-2"></g>
                        </g>
                        <path d="M4.64782138,18.0748481 C4.51096604,18.0748481 4.37411069,18.0228852 4.26975849,17.9189593 C4.06105409,17.7111074 4.06105409,17.3737741 4.26975849,17.1659222 L9.79486541,11.6635981 C10.003356,11.4555333 10.342073,11.4555333 10.5507774,11.6635981 C10.7596956,11.87145 10.7596956,12.2085704 10.5507774,12.4164222 L5.02588428,17.9189593 C4.92153208,18.0228852 4.78467673,18.0748481 4.64782138,18.0748481 Z M29.3367396,18.0748481 C29.1998843,18.0748481 29.0632428,18.0228852 28.9586767,17.9189593 L23.4337836,12.4164222 C23.2248654,12.2085704 23.2248654,11.87145 23.4337836,11.6635981 C23.6424881,11.4555333 23.9807774,11.4555333 24.1896956,11.6635981 L29.7148025,17.1659222 C29.9235069,17.3737741 29.9235069,17.7111074 29.7148025,17.9189593 C29.6102365,18.0228852 29.473595,18.0748481 29.3367396,18.0748481 Z M1.65034717,1.27771389 C1.32980629,1.27771389 1.06913962,1.53731574 1.06913962,1.85633426 L1.06913962,21.3315843 C1.06913962,21.6506028 1.32980629,21.9102046 1.65034717,21.9102046 L32.3341711,21.9102046 C32.6547119,21.9102046 32.9153786,21.6506028 32.9153786,21.3315843 L32.9153786,1.85633426 C32.9153786,1.53731574 32.6547119,1.27771389 32.3341711,1.27771389 L1.65034717,1.27771389 Z M32.3341711,22.9750194 L1.65034717,22.9750194 C0.740472956,22.9750194 -4.27672957e-05,22.2377417 -4.27672957e-05,21.3315843 L-4.27672957e-05,1.85633426 C-4.27672957e-05,0.950176852 0.740472956,0.212899074 1.65034717,0.212899074 L32.3341711,0.212899074 C33.2442591,0.212899074 33.984561,0.950176852 33.984561,1.85633426 L33.984561,21.3315843 C33.984561,22.2377417 33.2442591,22.9750194 32.3341711,22.9750194 L32.3341711,22.9750194 Z" id="Fill-8" fill="url(#linearGradient-3)"></path>
                        <path d="M16.9922805,18.3614324 C16.5695258,18.3614324 16.1469849,18.2012843 15.8253748,17.880775 L3.65187799,5.75700648 C3.44317358,5.54915463 3.44317358,5.21203426 3.65187799,5.00418241 C3.86058239,4.79633056 4.19929937,4.79633056 4.40778994,5.00418241 L16.5812868,17.1279509 C16.7991862,17.3449602 17.1853748,17.3449602 17.4032742,17.1279509 L29.5767711,5.00418241 C29.7854755,4.79633056 30.1237648,4.79633056 30.332683,5.00418241 C30.5413874,5.21203426 30.5413874,5.54915463 30.332683,5.75700648 L18.1591862,17.880775 C17.8375761,18.2012843 17.4150352,18.3614324 16.9922805,18.3614324" id="Path" fill="url(#linearGradient-3)"></path>
                    </g>
                </g>
            </g>
        </g>
    </g>
</svg>