<?xml version="1.0" encoding="UTF-8"?>
<svg width="56px" height="35px" viewBox="0 0 56 35" version="1.1" xmlns="http://www.w3.org/2000/svg" xmlns:xlink="http://www.w3.org/1999/xlink">
    <!-- Generator: Sketch 44.1 (41455) - http://www.bohemiancoding.com/sketch -->
    <title>Payment_History_Icon</title>
    <desc>Created with Sketch.</desc>
    <defs>
        <polygon id="path-1" points="31.7828352 0.0248181818 31.7828352 22.6969697 15.9859713 22.6969697 0.18910728 22.6969697 0.18910728 0.0248181818 31.7828352 0.0248181818"></polygon>
        <linearGradient x1="0%" y1="0%" x2="100%" y2="105.96612%" id="linearGradient-3">
            <stop stop-color="#19EEEF" offset="0%"></stop>
            <stop stop-color="#0BD8D9" offset="100%"></stop>
        </linearGradient>
    </defs>
    <g id="Sign_Up_Flow" stroke="none" stroke-width="1" fill="none" fill-rule="evenodd">
        <g id="Home-/-Dashboard" transform="translate(-252.000000, -345.000000)">
            <g id="DashBoard_Nav" transform="translate(1.000000, 54.000000)">
                <g id="Payment_History_Icon" transform="translate(251.510500, 290.712993)">
                    <g id="Page-1">
                        <g id="Group-3" transform="translate(0.000000, 0.126000)"></g>
                        <g id="Group-8" transform="translate(23.180077, 12.216909)">
                            <mask id="mask-2" fill="white">
                                <use xlink:href="#path-1"></use>
                            </mask>
                            <g id="Clip-7"></g>
                        </g>
                        <path d="M35.1810766,25.2410242 C35.1404061,25.3581152 35.0771877,25.4580242 34.9916322,25.5413879 C34.9058659,25.6247515 34.7956552,25.6898727 34.6603678,25.7365394 C34.5255019,25.7834182 34.3649272,25.8067515 34.1790651,25.8067515 L33.0114215,25.8067515 L33.0114215,23.8026303 L34.1790651,23.8026303 C34.3649272,23.8026303 34.5255019,23.8316909 34.6603678,23.8904485 C34.7956552,23.9487818 34.9058659,24.0268424 34.9916322,24.1248424 C35.0771877,24.2228424 35.1404061,24.3352667 35.1810766,24.4625394 C35.2217471,24.5898121 35.241977,24.7221758 35.241977,24.8594182 C35.241977,24.9970848 35.2217471,25.1241455 35.1810766,25.2410242 M53.3365977,33.8532727 L24.9953716,33.8532727 C24.6797011,33.8532727 24.4228238,33.594697 24.4228238,33.2767273 L24.4228238,18.8094242 L53.9093563,18.8094242 L53.9093563,33.2767273 C53.9093563,33.594697 53.6524789,33.8532727 53.3365977,33.8532727 M24.9953716,13.3023333 L53.3365977,13.3023333 C53.6524789,13.3023333 53.9093563,13.5609091 53.9093563,13.8786667 L53.9093563,15.6341818 L24.4228238,15.6341818 L24.4228238,13.8786667 C24.4228238,13.5609091 24.6797011,13.3023333 24.9953716,13.3023333 Z M18.3250939,25.5109485 C18.5920862,25.3972515 18.902067,25.5228273 19.0154387,25.7928576 C19.1288103,26.0626758 19.0034272,26.3736455 18.7353812,26.4877667 C17.0727375,27.1958273 15.3064157,27.5549485 13.4859368,27.5549485 C6.0497682,27.5549485 -2.10727968e-05,21.4651606 -2.10727968e-05,13.9798273 C-2.10727968e-05,6.49449394 6.0497682,0.404706061 13.4859368,0.404706061 C16.6849981,0.404706061 19.763523,1.5461303 22.1963774,3.62046364 L25.30609,0.490190909 C25.7867605,0.00655454545 26.1799789,0.170312121 26.1799789,0.854615152 L26.1799789,7.07443333 C26.1799789,7.75894848 25.6238678,8.31852424 24.9440594,8.31852424 L18.7650939,8.31852424 C18.0852854,8.31852424 17.9226034,7.92270606 18.4030632,7.43885758 L21.449136,4.37285758 C19.2168946,2.49643333 16.4057835,1.46531212 13.4859368,1.46531212 C6.63074521,1.46531212 1.05361877,7.0791 1.05361877,13.9798273 C1.05361877,20.8803424 6.63074521,26.4943424 13.4859368,26.4943424 C15.1645958,26.4943424 16.7928908,26.1634333 18.3250939,25.5109485 Z M53.3365977,12.2417273 L24.9953716,12.2417273 C24.0987241,12.2417273 23.3691839,12.9760909 23.3691839,13.8786667 L23.3691839,33.2767273 C23.3691839,34.1795152 24.0987241,34.9138788 24.9953716,34.9138788 L53.3365977,34.9138788 C54.2334559,34.9138788 54.9629962,34.1795152 54.9629962,33.2767273 L54.9629962,13.8786667 C54.9629962,12.9760909 54.2334559,12.2417273 53.3365977,12.2417273 M36.5621877,24.8507212 C36.5621877,24.5467515 36.5084521,24.2652667 36.4009808,24.0066909 C36.2932989,23.7476909 36.1373602,23.5241152 35.9325326,23.3355394 C35.7279157,23.1469636 35.4779923,23.0001758 35.1833946,22.8947515 C34.8883755,22.7895394 34.5537395,22.7369333 34.1790651,22.7369333 L31.7044866,22.7369333 L31.7044866,29.1222061 L33.0114215,29.1222061 L33.0114215,26.8722364 L34.1790651,26.8722364 C34.5537395,26.8722364 34.8883755,26.8249333 35.1833946,26.729903 C35.4779923,26.6348727 35.7279157,26.4997515 35.9325326,26.3241152 C36.1373602,26.1486909 36.2932989,25.9367818 36.4009808,25.6881758 C36.5084521,25.4397818 36.5621877,25.1606303 36.5621877,24.8507212 M20.2288525,13.5414152 L14.0127989,13.5414152 L14.0127989,6.75438485 C14.0127989,6.46144545 13.7769943,6.22408182 13.4859789,6.22408182 C13.1949636,6.22408182 12.959159,6.46144545 12.959159,6.75438485 L12.959159,14.0717182 C12.959159,14.3646576 13.1949636,14.6020212 13.4859789,14.6020212 L20.2288525,14.6020212 C20.5198678,14.6020212 20.7556724,14.3646576 20.7556724,14.0717182 C20.7556724,13.7787788 20.5198678,13.5414152 20.2288525,13.5414152 M38.3265709,26.7407848 L39.1151149,24.350603 L39.9122989,26.7407848 L38.3265709,26.7407848 Z M38.5096935,22.736997 L39.7207471,22.736997 L42.0952299,29.1222697 L40.7052682,29.1222697 L40.2652682,27.8064818 L37.9738123,27.8064818 L37.5382375,29.1222697 L36.1482759,29.1222697 L38.5096935,22.736997 Z M44.2211801,25.6136788 L45.5411801,22.7368909 L46.9701264,22.7368909 L44.8877126,26.8066485 L44.8877126,29.1221636 L43.5588621,29.1221636 L43.5588621,26.8066485 L41.4764483,22.7368909 L42.9096092,22.7368909 L44.2211801,25.6136788 Z" id="Fill-4" fill="url(#linearGradient-3)"></path>
                    </g>
                </g>
            </g>
        </g>
    </g>
</svg>